# xmcd CD database file generated by LOLA_Freedb v0.9beta0
# 
# Track frame offsets:
#      150
#      12919
#      28633
#      46039
#      59427
#      72072
#      82824
#      104306
#      125605
#      146925
# 
# Disc length: 2209 seconds
# 
# Revision: 0 
# Processed by: cddbd v1.5.1PL2 Copyright (c) Steve Scherf et al.
# Submitted via: LOLA_Freedb v0.9beta0
# 
DISCID=80089f0a
DTITLE=Les Humphries singers - Goin' down Jordan
DYEAR=1900
DGENRE=
TTITLE0=We are goin' down Jordan
TTITLE1=Susanne
TTITLE2=Little brown man
TTITLE3=Blowin' in the wind
TTITLE4=2.000 years
TTITLE5=When the saints go marchin' in
TTITLE6=Jesus Christ/It don't come easy/I'm going home
TTITLE7=Iam...I said/Love story/Butterfly
TTITLE8=Chirpy chirpy cheep cheep/She's a Lady/Coconut man
TTITLE9=Power to the people/Doctor doctor/Joy to the world
EXTD=
EXTT0=
EXTT1=
EXTT2=
EXTT3=
EXTT4=
EXTT5=
EXTT6=
EXTT7=
EXTT8=
EXTT9=
PLAYORDER=
